<svg width="52" height="52" viewBox="0 0 52 52" fill="none" xmlns="http://www.w3.org/2000/svg">
<path d="M37.9999 52C37.4703 51.9978 36.9632 51.7856 36.5899 51.41L12.5899 27.41C12.2174 27.0353 12.0083 26.5284 12.0083 26C12.0083 25.4716 12.2174 24.9647 12.5899 24.59L36.5899 0.590008C36.9646 0.217506 37.4715 0.00842285 37.9999 0.00842285C38.5283 0.00842285 39.0352 0.217506 39.4099 0.590008C39.7824 0.964733 39.9915 1.47164 39.9915 2.00001C39.9915 2.52838 39.7824 3.03528 39.4099 3.41001L16.8299 26L39.4099 48.59C39.6879 48.8697 39.877 49.2253 39.9535 49.6121C40.03 49.999 39.9904 50.3998 39.8397 50.7643C39.689 51.1287 39.434 51.4404 39.1066 51.6603C38.7793 51.8802 38.3942 51.9984 37.9999 52Z" fill="#F38BA8"/>
</svg>
