<svg width="24" height="24" viewBox="0 0 24 24" fill="none" xmlns="http://www.w3.org/2000/svg">
<path d="M12.5819 12.6374C12.6089 15.1987 14.6888 17.2649 17.2511 17.2649C19.8097 17.2649 21.8882 15.2039 21.9204 12.6494V12.6464L12.5819 12.6374ZM2.06376 11.3579L11.3768 11.3654C11.3678 8.79745 9.28632 6.7192 6.72026 6.7192C4.1572 6.7192 2.07725 8.79295 2.06376 11.3572V11.3587V11.3579ZM11.3483 21.9457L11.3476 12.6014C8.7815 12.6157 6.70603 14.7014 6.70603 17.2732C6.70603 19.8449 8.78225 21.9329 11.3483 21.9457ZM12.6216 2.0542L12.6186 11.3999C15.1749 11.3722 17.2369 9.29095 17.2369 6.7267C17.2369 4.16395 15.1764 2.0827 12.6238 2.05345H12.6208L12.6216 2.0542ZM12.6193 16.3784C12.6193 18.4169 12.6216 20.6572 12.6186 22.4647C12.6178 23.0047 12.3902 23.2274 11.8539 23.2454C11.7123 23.2574 11.5475 23.2642 11.3813 23.2642C8.08943 23.2642 5.42001 20.5919 5.42001 17.2949C5.42001 15.4079 6.29409 13.7257 7.6595 12.6314L7.67149 12.6224C5.84619 12.6374 3.91004 12.6292 2.06901 12.6292C0.804705 12.6292 0.745534 12.6202 0.753773 11.3632C0.757518 8.08045 3.41645 5.4202 6.69555 5.4202C8.57702 5.4202 10.254 6.2962 11.3431 7.6627L11.352 7.6747L11.3371 1.62295C11.3363 0.971199 11.5356 0.773949 12.1849 0.755949C12.3078 0.746949 12.4508 0.741699 12.5954 0.741699C15.8887 0.741699 18.5589 3.41545 18.5589 6.7132C18.5589 8.5912 17.693 10.2674 16.3389 11.3617L16.3276 11.3707L22.0664 11.3722C23.0933 11.3722 23.2281 11.4704 23.2161 12.5129C23.2169 12.5437 23.2169 12.5797 23.2169 12.6157C23.2169 15.9142 20.5467 18.5879 17.2526 18.5879C15.3876 18.5879 13.7226 17.7307 12.6283 16.3882L12.6201 16.3777L12.6193 16.3784Z" fill="#F38BA8"/>
</svg>
