<svg width="59" height="60" viewBox="0 0 59 60" fill="none" xmlns="http://www.w3.org/2000/svg">
<g clip-path="url(#clip0_22_166)">
<path d="M29.5 0.799927C13.2336 0.799927 0 14.0335 0 30.2999C0 46.5663 13.2336 59.7999 29.5 59.7999C45.7664 59.7999 59 46.5663 59 30.2999C59 14.0335 45.7664 0.799927 29.5 0.799927ZM29.5 56.4248C15.0946 56.4248 3.37516 44.7051 3.37516 30.2999C3.37516 15.8948 15.0946 4.17508 29.5 4.17508C43.9054 4.17508 55.6248 15.8948 55.6248 30.2999C55.6248 44.7051 43.9054 56.4248 29.5 56.4248Z" fill="#F38BA8"/>
<path d="M21.0621 23.5107C20.13 23.5107 19.3745 24.2662 19.3745 25.1983V39.1516C19.3745 40.0837 20.13 40.8392 21.0621 40.8392C21.9942 40.8392 22.7497 40.0837 22.7497 39.1516V25.1983C22.7497 24.2662 21.9942 23.5107 21.0621 23.5107Z" fill="#F38BA8"/>
<path d="M21.0621 15.6349C20.6177 15.6349 20.1827 15.8149 19.8695 16.1299C19.5545 16.4431 19.3745 16.8781 19.3745 17.3225C19.3745 17.7669 19.5545 18.2017 19.8695 18.5169C20.1827 18.83 20.6177 19.01 21.0621 19.01C21.5065 19.01 21.9415 18.83 22.2546 18.5169C22.5697 18.2017 22.7497 17.7669 22.7497 17.3225C22.7497 16.8781 22.5697 16.4431 22.2546 16.1299C21.9415 15.8149 21.5065 15.6349 21.0621 15.6349Z" fill="#F38BA8"/>
<path d="M35.641 24.8233C33.8747 24.8233 32.2398 25.3926 30.9064 26.3551V25.1983C30.9064 24.2662 30.1509 23.5107 29.2188 23.5107C28.2867 23.5107 27.5312 24.2662 27.5312 25.1983V39.1516C27.5312 40.0837 28.2867 40.8392 29.2188 40.8392C30.1509 40.8392 30.9064 40.0837 30.9064 39.1516V32.9331C30.9064 30.3224 33.0303 28.1985 35.641 28.1985C38.2517 28.1985 40.3756 30.3224 40.3756 32.9331V39.5266C40.3756 40.4587 41.1311 41.2142 42.0632 41.2142C42.9953 41.2142 43.7508 40.4587 43.7508 39.5266V32.9331C43.7508 28.4613 40.1127 24.8233 35.641 24.8233Z" fill="#F38BA8"/>
</g>
<defs>
<clipPath id="clip0_22_166">
<rect width="59" height="59" fill="white" transform="translate(0 0.799927)"/>
</clipPath>
</defs>
</svg>
