<svg width="121" height="121" viewBox="0 0 121 121" fill="none" xmlns="http://www.w3.org/2000/svg">
<g clip-path="url(#clip0_12_54)">
<path d="M89.4338 47.3473H56.5537V63.1298H89.4338V47.3473Z" fill="#F38BA8"/>
<path d="M89.4338 23.6737H56.5537V39.4562H89.4338V23.6737Z" fill="#F38BA8"/>
<path d="M48.6624 23.6737H31.5648V63.1297H48.6624V23.6737Z" fill="#F38BA8"/>
<path d="M85.4231 113.31L64.4461 106.318V94.6945H56.5544V106.318L35.5786 113.31C33.5107 113.998 32.3957 116.233 33.0843 118.3C33.7747 120.377 36.0214 121.484 38.0756 120.795L60.5008 113.32L82.926 120.795C84.9814 121.485 87.2275 120.375 87.9173 118.3C88.6057 116.234 87.491 113.998 85.4231 113.31Z" fill="#F38BA8"/>
<path d="M117.054 78.9122H113.108V7.89125H117.054C119.232 7.89125 120.999 6.12516 120.999 3.94574C120.999 1.76608 119.232 0 117.054 0C66.3232 0 55.7373 0 3.94636 0C1.76812 0 0.000854492 1.76608 0.000854492 3.94551C0.000854492 6.12516 1.76812 7.89101 3.94636 7.89101H7.89187V78.912H3.94636C1.76812 78.912 0.000854492 80.6781 0.000854492 82.8575C0.000854492 85.0372 1.76812 86.803 3.94636 86.803C17.2517 86.803 104.782 86.803 117.054 86.803C119.232 86.803 120.999 85.0369 120.999 82.8575C120.999 80.6783 119.232 78.9122 117.054 78.9122ZM97.3259 67.0753C97.3259 69.2549 95.5587 71.0208 93.3804 71.0208H27.6201C25.4419 71.0208 23.6746 69.2547 23.6746 67.0753V19.728C23.6746 17.5483 25.4419 15.7825 27.6201 15.7825H93.3802C95.5584 15.7825 97.3257 17.5486 97.3257 19.728V67.0753H97.3259Z" fill="#F38BA8"/>
<path d="M117.054 78.9122H113.108V7.89125H117.054C119.232 7.89125 120.999 6.12516 120.999 3.94574C120.999 1.76608 119.232 0 117.054 0C66.3232 0 55.7373 0 3.94636 0C1.76812 0 0.000854492 1.76608 0.000854492 3.94551C0.000854492 6.12516 1.76812 7.89101 3.94636 7.89101H7.89187V78.912H3.94636C1.76812 78.912 0.000854492 80.6781 0.000854492 82.8575C0.000854492 85.0372 1.76812 86.803 3.94636 86.803C17.2517 86.803 104.782 86.803 117.054 86.803C119.232 86.803 120.999 85.0369 120.999 82.8575C120.999 80.6783 119.232 78.9122 117.054 78.9122ZM97.3259 67.0753C97.3259 69.2549 95.5587 71.0208 93.3804 71.0208H27.6201C25.4419 71.0208 23.6746 69.2547 23.6746 67.0753V19.728C23.6746 17.5483 25.4419 15.7825 27.6201 15.7825H93.3802C95.5584 15.7825 97.3257 17.5486 97.3257 19.728V67.0753H97.3259Z" fill="#F38BA8"/>
</g>
<defs>
<clipPath id="clip0_12_54">
<rect width="121" height="121" fill="white"/>
</clipPath>
</defs>
</svg>
