<svg width="140" height="106" viewBox="0 0 140 106" fill="none" xmlns="http://www.w3.org/2000/svg">
<path d="M4.04157 88.6143H95.5266V74.1293C93.6189 71.6074 92.3418 68.5843 91.9215 65.2864H20.5797C19.2864 65.2864 18.2356 64.2356 18.2356 62.9423C18.2356 61.649 19.2864 60.5982 20.5797 60.5982H91.9215C93.0854 51.4481 100.91 44.3511 110.367 44.3511C120.617 44.3511 128.959 52.6929 128.959 62.9423C128.959 67.1455 127.568 71.0093 125.208 74.1293V88.6143H135.958C138.189 88.6143 140 86.8037 140 84.5728V4.87299C140 2.64204 138.189 0.831421 135.958 0.831421H4.04157C1.81062 0.831421 0 2.64204 0 4.87299V84.5728C0 86.8037 1.81062 88.6143 4.04157 88.6143ZM45.7991 13.522H94.2009C95.5427 13.522 96.6259 14.6051 96.6259 15.9469C96.6259 17.2887 95.5427 18.3718 94.2009 18.3718H45.7991C44.4573 18.3718 43.3741 17.2887 43.3741 15.9469C43.3741 14.6051 44.4573 13.522 45.7991 13.522ZM20.5797 29.1062H119.42C120.714 29.1062 121.764 30.1571 121.764 31.4504C121.764 32.7437 120.714 33.7945 119.42 33.7945H20.5797C19.2864 33.7945 18.2356 32.7437 18.2356 31.4504C18.2356 30.1571 19.2864 29.1062 20.5797 29.1062Z" fill="#F38BA8"/>
<path d="M99.649 78.1224V88.6143V102.744C99.649 104.215 100.845 105.169 102.09 105.169C102.721 105.169 103.351 104.926 103.852 104.393L108.589 99.2839C109.074 98.7666 109.721 98.508 110.367 98.508C111.014 98.508 111.661 98.7666 112.146 99.2839L116.882 104.393C117.383 104.926 118.014 105.169 118.644 105.169C119.889 105.169 121.085 104.215 121.085 102.744V88.6143V78.1224C118.062 80.2726 114.36 81.5335 110.367 81.5335C106.374 81.5335 102.688 80.2726 99.649 78.1224Z" fill="#F38BA8"/>
<path d="M123.284 67.5173C123.818 66.03 124.109 64.4457 124.109 62.9423C124.109 55.3603 117.949 49.2009 110.367 49.2009C102.785 49.2009 96.626 55.3603 96.626 62.9423C96.626 65.0439 97.2564 67.6305 98.3397 69.5866C98.7438 70.3141 99.2126 71.0094 99.7461 71.6397C102.268 74.7113 106.099 76.6676 110.367 76.6676C114.635 76.6676 118.467 74.7113 120.989 71.6397C121.958 70.4596 122.751 69.037 123.284 67.5173Z" fill="#F38BA8"/>
</svg>
