<svg width="138" height="132" viewBox="0 0 138 132" fill="none" xmlns="http://www.w3.org/2000/svg">
<path d="M46.25 91.4375H91.75V97.125H46.25V91.4375ZM134.406 28.875H3.59375C2.02969 28.875 0.75 30.0409 0.75 31.605V91.4375H40.5625V88.5938C40.5625 87.024 41.8365 85.75 43.4062 85.75H94.5938C96.1635 85.75 97.4375 87.024 97.4375 88.5938V91.4375H137.25V31.605C137.25 30.0409 135.97 28.875 134.406 28.875Z" fill="#F38BA8"/>
<path d="M137.25 97.125V128.361C137.25 129.925 135.97 131.25 134.406 131.25H3.59375C2.02969 131.25 0.75 129.925 0.75 128.361V97.125H40.5625V99.9688C40.5625 101.538 41.8365 102.812 43.4062 102.812H94.5938C96.1635 102.812 97.4375 101.538 97.4375 99.9688V97.125H137.25ZM88.9062 0.4375H49.0938C35.7622 0.4375 23.5 4.74863 23.5 28.8523H34.875C34.875 11.6817 41.3929 11.8125 49.0938 11.8125H88.9062C96.6071 11.8125 103.125 11.6817 103.125 28.8523H114.5C114.5 4.74863 102.238 0.4375 88.9062 0.4375Z" fill="#EBA0AC"/>
</svg>
