<svg width="64" height="65" viewBox="0 0 64 65" fill="none" xmlns="http://www.w3.org/2000/svg">
<g clip-path="url(#clip0_50_2)">
<path d="M0 64.7999L5.504 48.289C2.71117 43.5916 1.10345 38.1097 1.10345 32.2482C1.10345 14.8799 15.1834 0.799927 32.5517 0.799927C49.92 0.799927 64 14.8799 64 32.2482C64 49.6165 49.92 63.6965 32.5517 63.6965C27.2673 63.6965 22.2908 62.3867 17.92 60.0849L0 64.7999Z" fill="#F38BA8"/>
<path d="M52.6159 42.7144C51.1637 39.9701 45.8087 36.8319 45.8087 36.8319C44.5971 36.1412 43.1351 36.0639 42.4443 37.2954C42.4443 37.2954 40.7042 39.382 40.2617 39.6821C38.2402 41.0515 36.3676 40.9985 34.4774 39.1083L30.0846 34.7155L25.6917 30.3227C23.8015 28.4325 23.7486 26.5599 25.118 24.5384C25.4181 24.0959 27.5047 22.3558 27.5047 22.3558C28.7362 21.6639 28.6589 20.203 27.9682 18.9914C27.9682 18.9914 24.83 13.6363 22.0857 12.1842C20.9182 11.5663 19.4848 11.7825 18.5513 12.7161L16.6115 14.6559C10.4575 20.8099 13.4876 27.7572 19.6415 33.9111L25.2658 39.5354L30.8901 45.1596C37.044 51.3136 43.9913 54.3436 50.1453 48.1897L52.0851 46.2499C53.0186 45.3141 53.2338 43.8808 52.6159 42.7144Z" fill="#11111B"/>
</g>
<defs>
<clipPath id="clip0_50_2">
<rect width="64" height="64" fill="white" transform="translate(0 0.799927)"/>
</clipPath>
</defs>
</svg>
